<?xml version="1.0" encoding="UTF-8"?>
<svg xmlns="http://www.w3.org/2000/svg" viewBox="0 0 163 153" width="163" height="153">
  <rect width="100%" height="100%" fill="white"/>
  <path d="M127,14L124,12L122,12L121,10L119,9L117,9L116,7L110,7L108,8L106,10L102,16L102,17L98,22L93,26L90,29L89,31L84,34L79,35L75,33L73,33L70,32L69,30L67,29L65,29L61,26L59,26L56,25L55,23L53,22L51,22L48,21L47,20L41,18L39,19L36,18L35,16L33,15L28,15L24,14L20,15L18,16L13,20L8,27L8,32L7,36L8,41L10,44L10,46L11,48L18,54L22,55L24,57L29,59L31,59L37,61L38,63L41,64L43,66L44,69L44,74L39,82L37,83L35,87L31,91L28,95L26,99L24,100L21,106L17,110L17,112L15,113L15,115L10,121L9,124L9,126L7,130L8,137L10,142L14,145L21,145L29,141L42,132L58,118L62,114L63,112L65,111L78,99L80,96L84,93L88,91L95,91L98,92L100,94L102,95L104,95L107,98L109,98L110,100L112,100L118,105L120,105L126,110L129,111L132,113L135,114L144,114L148,112L152,108L152,106L154,105L155,103L154,100L154,94L155,93L154,88L150,80L143,73L136,68L134,68L130,64L126,59L126,56L128,52L131,50L136,45L138,42L139,39L139,36L138,30L135,25L134,22L132,21L132,19Z" fill="black" fill-rule="evenodd" stroke="none"/>
</svg>