<svg xmlns="http://www.w3.org/2000/svg" width="180" height="720" viewBox="0 0 180 720"><rect width="180" height="720" rx="9" fill="#f7f2de"/><rect x="3" y="3" width="174" height="714" rx="7" fill="none" stroke="#c6b48f" stroke-width="2"/><rect x="10" y="10" width="160" height="700" rx="5" fill="none" stroke="#e4d6b5"/><g fill="#14110d" transform="translate(15.000000 17.435484) scale(0.806452) rotate(28 93.000000 87.500000)"><path d="M24,32L20,34L18,36L16,37L14,37L12,38L6,43L5,50L6,54L7,55L7,63L8,67L9,68L9,74L10,79L10,84L12,91L11,95L13,104L12,113L12,118L14,123L19,128L23,130L27,130L29,132L31,132L36,137L42,145L42,147L44,150L48,154L49,157L58,165L60,166L62,166L64,168L69,168L73,167L81,163L84,161L88,157L89,155L89,153L91,150L91,148L88,142L86,139L84,137L83,134L76,124L72,120L70,117L70,116L64,110L56,98L54,90L52,78L53,70L52,61L53,60L53,57L51,46L49,42L45,38L38,33L36,33L33,32L32,30Z M84,7L74,10L67,14L65,14L57,19L52,24L52,28L53,30L57,34L64,37L72,45L73,49L72,57L71,60L69,62L67,69L67,72L66,76L64,78L63,82L63,89L64,92L68,96L71,97L73,99L78,101L80,101L82,102L84,104L91,107L94,109L99,114L102,121L102,128L100,133L101,137L103,141L106,144L108,145L119,145L125,142L127,140L136,136L139,134L141,132L143,132L151,126L153,125L155,125L157,124L160,121L163,120L165,118L167,118L169,116L171,115L174,115L177,114L180,111L180,109L179,107L177,105L175,101L175,99L173,96L171,94L170,91L166,87L160,84L155,85L150,85L145,88L144,90L144,93L143,96L136,103L134,104L124,104L119,101L117,99L114,98L112,95L106,91L102,87L97,79L97,71L100,66L104,62L108,60L117,60L122,63L131,73L133,76L133,77L138,79L141,79L145,77L149,71L149,69L151,66L151,63L153,61L153,52L152,49L149,43L146,40L141,38L138,35L131,34L130,33L126,33L122,31L118,27L117,25L117,17L116,15L112,11L109,9L106,8L103,8L101,6L92,6L86,8Z" fill="#14110d" fill-rule="evenodd" stroke="none"/>
</g><g fill="#14110d" transform="translate(15.000000 561.435484) scale(0.806452) rotate(208 93.000000 87.500000)"><path d="M24,32L20,34L18,36L16,37L14,37L12,38L6,43L5,50L6,54L7,55L7,63L8,67L9,68L9,74L10,79L10,84L12,91L11,95L13,104L12,113L12,118L14,123L19,128L23,130L27,130L29,132L31,132L36,137L42,145L42,147L44,150L48,154L49,157L58,165L60,166L62,166L64,168L69,168L73,167L81,163L84,161L88,157L89,155L89,153L91,150L91,148L88,142L86,139L84,137L83,134L76,124L72,120L70,117L70,116L64,110L56,98L54,90L52,78L53,70L52,61L53,60L53,57L51,46L49,42L45,38L38,33L36,33L33,32L32,30Z M84,7L74,10L67,14L65,14L57,19L52,24L52,28L53,30L57,34L64,37L72,45L73,49L72,57L71,60L69,62L67,69L67,72L66,76L64,78L63,82L63,89L64,92L68,96L71,97L73,99L78,101L80,101L82,102L84,104L91,107L94,109L99,114L102,121L102,128L100,133L101,137L103,141L106,144L108,145L119,145L125,142L127,140L136,136L139,134L141,132L143,132L151,126L153,125L155,125L157,124L160,121L163,120L165,118L167,118L169,116L171,115L174,115L177,114L180,111L180,109L179,107L177,105L175,101L175,99L173,96L171,94L170,91L166,87L160,84L155,85L150,85L145,88L144,90L144,93L143,96L136,103L134,104L124,104L119,101L117,99L114,98L112,95L106,91L102,87L97,79L97,71L100,66L104,62L108,60L117,60L122,63L131,73L133,76L133,77L138,79L141,79L145,77L149,71L149,69L151,66L151,63L153,61L153,52L152,49L149,43L146,40L141,38L138,35L131,34L130,33L126,33L122,31L118,27L117,25L117,17L116,15L112,11L109,9L106,8L103,8L101,6L92,6L86,8Z" fill="#14110d" fill-rule="evenodd" stroke="none"/>
</g></svg>