<svg xmlns="http://www.w3.org/2000/svg" width="180" height="720" viewBox="0 0 180 720"><rect width="180" height="720" rx="9" fill="#f7f2de"/><rect x="3" y="3" width="174" height="714" rx="7" fill="none" stroke="#c6b48f" stroke-width="2"/><rect x="10" y="10" width="160" height="700" rx="5" fill="none" stroke="#e4d6b5"/><g fill="#14110d" transform="translate(15.000000 20.500000) scale(0.833333) rotate(0 90.000000 81.000000)"><path d="M10,59L8,63L7,67L7,72L6,74L8,76L8,78L10,81L12,83L17,86L19,86L21,88L25,89L30,89L36,88L40,89L43,88L47,92L48,94L46,96L46,98L44,101L44,103L38,112L26,127L23,129L21,133L24,135L30,136L35,135L37,133L39,133L44,131L46,129L48,129L50,127L52,127L57,123L58,121L62,119L69,112L73,107L73,106L76,104L85,90L86,86L88,83L92,82L92,87L90,92L91,94L89,97L89,102L87,107L86,112L86,128L85,131L87,139L89,142L90,145L98,151L103,153L118,153L122,154L126,154L132,152L136,153L141,151L147,151L157,148L160,146L162,146L168,141L171,136L172,133L173,127L171,119L169,117L169,114L167,113L167,110L165,109L165,106L161,101L153,98L150,98L146,104L146,105L142,110L139,113L131,119L129,119L127,121L121,121L115,119L113,114L113,107L116,94L118,92L119,89L119,87L121,81L124,74L126,72L129,61L132,55L134,53L134,51L136,48L136,46L138,44L139,41L139,39L141,37L141,32L139,30L139,28L137,26L134,24L128,22L123,21L117,23L108,24L103,24L101,23L98,20L98,15L99,13L98,11L96,9L88,6L84,6L82,7L74,7L65,9L62,10L59,13L57,19L56,27L53,34L51,37L44,44L42,44L39,46L30,48L28,48L26,47L24,49L22,49L19,50L14,53Z" fill="#14110d" fill-rule="evenodd" stroke="none"/>
</g><g fill="#14110d" transform="translate(15.000000 564.500000) scale(0.833333) rotate(180 90.000000 81.000000)"><path d="M10,59L8,63L7,67L7,72L6,74L8,76L8,78L10,81L12,83L17,86L19,86L21,88L25,89L30,89L36,88L40,89L43,88L47,92L48,94L46,96L46,98L44,101L44,103L38,112L26,127L23,129L21,133L24,135L30,136L35,135L37,133L39,133L44,131L46,129L48,129L50,127L52,127L57,123L58,121L62,119L69,112L73,107L73,106L76,104L85,90L86,86L88,83L92,82L92,87L90,92L91,94L89,97L89,102L87,107L86,112L86,128L85,131L87,139L89,142L90,145L98,151L103,153L118,153L122,154L126,154L132,152L136,153L141,151L147,151L157,148L160,146L162,146L168,141L171,136L172,133L173,127L171,119L169,117L169,114L167,113L167,110L165,109L165,106L161,101L153,98L150,98L146,104L146,105L142,110L139,113L131,119L129,119L127,121L121,121L115,119L113,114L113,107L116,94L118,92L119,89L119,87L121,81L124,74L126,72L129,61L132,55L134,53L134,51L136,48L136,46L138,44L139,41L139,39L141,37L141,32L139,30L139,28L137,26L134,24L128,22L123,21L117,23L108,24L103,24L101,23L98,20L98,15L99,13L98,11L96,9L88,6L84,6L82,7L74,7L65,9L62,10L59,13L57,19L56,27L53,34L51,37L44,44L42,44L39,46L30,48L28,48L26,47L24,49L22,49L19,50L14,53Z" fill="#14110d" fill-rule="evenodd" stroke="none"/>
</g></svg>